<svg xmlns:ev="http://www.w3.org/2001/xml-events" xmlns:xlink="http://www.w3.org/1999/xlink" ed:vSpacing="30" xmlns="http://www.w3.org/2000/svg" ed:name="页面-1" ed:hSpacing="30" xmlns:ed="https://www.edrawsoft.com/xml/2017/SVGExtensions/" id="page100" viewBox="0 0 982 1060" height="1060" width="982"><style type="text/css"><![CDATA[
g[ed\:togtopicid],g[ed\:hyperlink],g[ed\:comment],g[ed\:note] {cursor:pointer;}
g[id] {-moz-user-select: none;-ms-user-select: none;user-select: none;}
svg text::selection,svg tspan::selection{background-color: #4285f4;color: #ffffff;fill: #ffffff;}
.st3 {fill:#303030;font-family:微软雅黑;font-size:10pt}
.st2 {fill:#303030;font-family:微软雅黑;font-size:14pt;font-weight:bold}
.st1 {fill:#ffffff;font-family:微软雅黑;font-size:18pt;font-weight:bold}
]]></style><defs/><rect x="0" fill="#ffffff" y="0" height="1060" width="982"/><path stroke="#454545" stroke-linecap="round" d="M-40,207.7C-34.5,51.9,8,-239.4,69.6,-239.4" fill="none" stroke-linejoin="round" id="103" ed:tosuperid="102" transform="matrix(1,0,0,1,168.77,296.92)" ed:parentid="101" stroke-width="3"/><path stroke="#454545" stroke-linecap="round" d="M-38.6,161.6C-32.1,34.4,9.6,-193.3,69.6,-193.3" fill="none" stroke-linejoin="round" id="105" ed:tosuperid="104" transform="matrix(1,0,0,1,168.77,343.08)" ed:parentid="101" stroke-width="3"/><path stroke="#454545" stroke-linecap="round" d="M-33.3,82.6C-24,5.9,14.9,-114.3,69.6,-114.3" fill="none" stroke-linejoin="round" id="107" ed:tosuperid="106" transform="matrix(1,0,0,1,168.77,422.06)" ed:parentid="101" stroke-width="3"/><path stroke="#454545" stroke-linecap="round" d="M-21.6,7.5L-10.6,7.5C5.7,-7.5,5.7,-7.5,21.6,-7.5" fill="none" stroke-linejoin="round" id="109" ed:tosuperid="108" transform="matrix(1,0,0,1,374.63,50)" ed:parentid="102"/><path stroke="#454545" stroke-linecap="round" d="M-10.6,-7.5C5.7,7.5,5.7,7.5,21.6,7.5" fill="none" stroke-linejoin="round" id="111" ed:tosuperid="110" transform="matrix(1,0,0,1,374.63,65)" ed:parentid="102"/><path stroke="#454545" stroke-linecap="round" d="M-21.6,7.5L-10.6,7.5C5.7,-7.5,5.7,-7.5,21.6,-7.5" fill="none" stroke-linejoin="round" id="113" ed:tosuperid="112" transform="matrix(1,0,0,1,374.63,142.33)" ed:parentid="104"/><path stroke="#454545" stroke-linecap="round" d="M-10.6,-7.5C5.7,7.5,5.7,7.5,21.6,7.5" fill="none" stroke-linejoin="round" id="115" ed:tosuperid="114" transform="matrix(1,0,0,1,374.63,157.33)" ed:parentid="104"/><path stroke="#454545" stroke-linecap="round" d="M-21.6,40.3L-10.6,40.3C5.7,-40.3,5.7,-40.3,21.6,-40.3" fill="none" stroke-linejoin="round" id="117" ed:tosuperid="116" transform="matrix(1,0,0,1,374.63,267.48)" ed:parentid="106"/><path stroke="#454545" stroke-linecap="round" d="M-10.6,-40.3C5.7,40.3,5.7,40.3,21.6,40.3" fill="none" stroke-linejoin="round" id="119" ed:tosuperid="118" transform="matrix(1,0,0,1,374.63,348.1)" ed:parentid="106"/><path stroke="#454545" stroke-linecap="round" d="M-21.6,65.6L-10.6,65.6C5.7,-65.6,5.7,-65.6,21.6,-65.6" fill="none" stroke-linejoin="round" id="123" ed:tosuperid="122" transform="matrix(1,0,0,1,489.16,322.79)" ed:parentid="118"/><path stroke="#454545" stroke-linecap="round" d="M-10.6,-65.6C5.7,65.6,5.7,65.6,21.6,65.6" fill="none" stroke-linejoin="round" id="125" ed:tosuperid="124" transform="matrix(1,0,0,1,489.16,454.04)" ed:parentid="118"/><path stroke="#454545" stroke-linecap="round" d="M-21.6,63.8L-10.6,63.8C5.7,-63.8,5.7,-63.8,21.6,-63.8" fill="none" stroke-linejoin="round" id="129" ed:tosuperid="128" transform="matrix(1,0,0,1,643.69,455.92)" ed:parentid="124"/><path stroke="#454545" stroke-linecap="round" d="M-21.6,37.5L-10.6,37.5C5.7,-37.5,5.7,-37.5,21.6,-37.5" fill="none" stroke-linejoin="round" id="131" ed:tosuperid="130" transform="matrix(1,0,0,1,731.56,354.67)" ed:parentid="128"/><path stroke="#454545" stroke-linecap="round" d="M-10.6,-7.5C5.7,7.5,5.7,7.5,21.6,7.5" fill="none" stroke-linejoin="round" id="135" ed:tosuperid="134" transform="matrix(1,0,0,1,731.56,399.67)" ed:parentid="128"/><path stroke="#454545" stroke-linecap="round" d="M-21.6,15L-10.6,15C5.7,-15,5.7,-15,21.6,-15" fill="none" stroke-linejoin="round" id="137" ed:tosuperid="136" transform="matrix(1,0,0,1,859.43,392.17)" ed:parentid="134"/><path stroke="#454545" stroke-linecap="round" d="M-10.6,0C5.7,0,5.7,0,21.6,0" fill="none" stroke-linejoin="round" id="141" ed:tosuperid="140" transform="matrix(1,0,0,1,859.43,407.17)" ed:parentid="134"/><path stroke="#454545" stroke-linecap="round" d="M-10.6,-15C5.7,15,5.7,15,21.6,15" fill="none" stroke-linejoin="round" id="143" ed:tosuperid="142" transform="matrix(1,0,0,1,859.43,422.17)" ed:parentid="134"/><path stroke="#454545" stroke-linecap="round" d="M-21.6,15L-10.6,15C5.7,-15,5.7,-15,21.6,-15" fill="none" stroke-linejoin="round" id="147" ed:tosuperid="144" transform="matrix(1,0,0,1,832.76,302.17)" ed:parentid="130"/><path stroke="#454545" stroke-linecap="round" d="M-10.6,0C5.7,0,5.7,0,21.6,0" fill="none" stroke-linejoin="round" id="148" ed:tosuperid="145" transform="matrix(1,0,0,1,832.76,317.17)" ed:parentid="130"/><path stroke="#454545" stroke-linecap="round" d="M-10.6,-15C5.7,15,5.7,15,21.6,15" fill="none" stroke-linejoin="round" id="149" ed:tosuperid="146" transform="matrix(1,0,0,1,832.76,332.17)" ed:parentid="130"/><path stroke="#454545" stroke-linecap="round" d="M-10.6,-37.5C5.7,37.5,5.7,37.5,21.6,37.5" fill="none" stroke-linejoin="round" id="151" ed:tosuperid="150" transform="matrix(1,0,0,1,731.56,429.67)" ed:parentid="128"/><path stroke="#454545" stroke-linecap="round" d="M-10.6,-3.8C5.7,3.8,5.7,3.8,21.6,3.8" fill="none" stroke-linejoin="round" id="157" ed:tosuperid="156" transform="matrix(1,0,0,1,643.69,523.42)" ed:parentid="124"/><path stroke="#454545" stroke-linecap="round" d="M-21.6,0L-10.6,0C5.7,0,5.7,0,21.6,0" fill="none" stroke-linejoin="round" id="159" ed:tosuperid="158" transform="matrix(1,0,0,1,731.56,527.17)" ed:parentid="156"/><path stroke="#454545" stroke-linecap="round" d="M-21.6,15L-10.6,15C5.7,-15,5.7,-15,21.6,-15" fill="none" stroke-linejoin="round" id="165" ed:tosuperid="162" transform="matrix(1,0,0,1,848.76,512.17)" ed:parentid="158"/><path stroke="#454545" stroke-linecap="round" d="M-10.6,0C5.7,0,5.7,0,21.6,0" fill="none" stroke-linejoin="round" id="166" ed:tosuperid="163" transform="matrix(1,0,0,1,848.76,527.17)" ed:parentid="158"/><path stroke="#454545" stroke-linecap="round" d="M-10.6,-15C5.7,15,5.7,15,21.6,15" fill="none" stroke-linejoin="round" id="167" ed:tosuperid="164" transform="matrix(1,0,0,1,848.76,542.17)" ed:parentid="158"/><path stroke="#454545" stroke-linecap="round" d="M-10.6,-63.8C5.7,63.8,5.7,63.8,21.6,63.8" fill="none" stroke-linejoin="round" id="169" ed:tosuperid="168" transform="matrix(1,0,0,1,643.69,583.42)" ed:parentid="124"/><path stroke="#454545" stroke-linecap="round" d="M-21.6,15L-10.6,15C5.7,-15,5.7,-15,21.6,-15" fill="none" stroke-linejoin="round" id="171" ed:tosuperid="170" transform="matrix(1,0,0,1,758.23,632.17)" ed:parentid="168"/><path stroke="#454545" stroke-linecap="round" d="M-10.6,-15C5.7,15,5.7,15,21.6,15" fill="none" stroke-linejoin="round" id="173" ed:tosuperid="172" transform="matrix(1,0,0,1,758.23,662.17)" ed:parentid="168"/><path stroke="#454545" stroke-linecap="round" d="M-21.6,15L-10.6,15C5.7,-15,5.7,-15,21.6,-15" fill="none" stroke-linejoin="round" id="177" ed:tosuperid="174" transform="matrix(1,0,0,1,863.43,602.17)" ed:parentid="170"/><path stroke="#454545" stroke-linecap="round" d="M-10.6,0C5.7,0,5.7,0,21.6,0" fill="none" stroke-linejoin="round" id="178" ed:tosuperid="175" transform="matrix(1,0,0,1,863.43,617.17)" ed:parentid="170"/><path stroke="#454545" stroke-linecap="round" d="M-10.6,-15C5.7,15,5.7,15,21.6,15" fill="none" stroke-linejoin="round" id="179" ed:tosuperid="176" transform="matrix(1,0,0,1,863.43,632.17)" ed:parentid="170"/><path stroke="#454545" stroke-linecap="round" d="M-37,-127C-29.5,-21.7,11.3,158.7,69.6,158.7" fill="none" stroke-linejoin="round" id="181" ed:tosuperid="180" transform="matrix(1,0,0,1,168.77,695)" ed:parentid="101" stroke-width="3"/><path stroke="#454545" stroke-linecap="round" d="M-21.6,30L-10.6,30C5.7,-30,5.7,-30,21.6,-30" fill="none" stroke-linejoin="round" id="185" ed:tosuperid="184" transform="matrix(1,0,0,1,374.63,823.67)" ed:parentid="180"/><path stroke="#454545" stroke-linecap="round" d="M-21.6,30L-10.6,30C5.7,-30,5.7,-30,21.6,-30" fill="none" stroke-linejoin="round" id="187" ed:tosuperid="186" transform="matrix(1,0,0,1,542.49,763.67)" ed:parentid="184"/><path stroke="#454545" stroke-linecap="round" d="M-10.6,15C5.7,-15,5.7,-15,21.6,-15" fill="none" stroke-linejoin="round" id="189" ed:tosuperid="188" transform="matrix(1,0,0,1,542.49,778.67)" ed:parentid="184"/><path stroke="#454545" stroke-linecap="round" d="M-10.6,0C5.7,0,5.7,0,21.6,0" fill="none" stroke-linejoin="round" id="191" ed:tosuperid="190" transform="matrix(1,0,0,1,542.49,793.67)" ed:parentid="184"/><path stroke="#454545" stroke-linecap="round" d="M-10.6,-15C5.7,15,5.7,15,21.6,15" fill="none" stroke-linejoin="round" id="193" ed:tosuperid="192" transform="matrix(1,0,0,1,542.49,808.67)" ed:parentid="184"/><path stroke="#454545" stroke-linecap="round" d="M-10.6,-30C5.7,30,5.7,30,21.6,30" fill="none" stroke-linejoin="round" id="195" ed:tosuperid="194" transform="matrix(1,0,0,1,542.49,823.67)" ed:parentid="184"/><path stroke="#454545" stroke-linecap="round" d="M-10.6,-30C5.7,30,5.7,30,21.6,30" fill="none" stroke-linejoin="round" id="197" ed:tosuperid="196" transform="matrix(1,0,0,1,374.63,883.67)" ed:parentid="180"/><path stroke="#454545" stroke-linecap="round" d="M-21.6,15L-10.6,15C5.7,-15,5.7,-15,21.6,-15" fill="none" stroke-linejoin="round" id="199" ed:tosuperid="198" transform="matrix(1,0,0,1,489.16,898.67)" ed:parentid="196"/><path stroke="#454545" stroke-linecap="round" d="M-10.6,0C5.7,0,5.7,0,21.6,0" fill="none" stroke-linejoin="round" id="201" ed:tosuperid="200" transform="matrix(1,0,0,1,489.16,913.67)" ed:parentid="196"/><path stroke="#454545" stroke-linecap="round" d="M-10.6,-15C5.7,15,5.7,15,21.6,15" fill="none" stroke-linejoin="round" id="203" ed:tosuperid="202" transform="matrix(1,0,0,1,489.16,928.67)" ed:parentid="196"/><path stroke="#454545" stroke-linecap="round" d="M-40,-207.8C-34.5,-51.9,8,239.4,69.6,239.4" fill="none" stroke-linejoin="round" id="205" ed:tosuperid="204" transform="matrix(1,0,0,1,168.77,775.75)" ed:parentid="101" stroke-width="3"/><path stroke="#454545" stroke-linecap="round" d="M-21.6,0L-10.6,0C5.7,-0,5.7,-0,21.6,-0" fill="none" stroke-linejoin="round" id="207" ed:tosuperid="206" transform="matrix(1,0,0,1,486.63,1015.17)" ed:parentid="204"/><path stroke="#454545" stroke-linecap="round" d="M-21.6,7.5L-10.6,7.5C5.7,-7.5,5.7,-7.5,21.6,-7.5" fill="none" stroke-linejoin="round" id="209" ed:tosuperid="208" transform="matrix(1,0,0,1,734.49,1007.67)" ed:parentid="206"/><path stroke="#454545" stroke-linecap="round" d="M-10.6,-7.5C5.7,7.5,5.7,7.5,21.6,7.5" fill="none" stroke-linejoin="round" id="211" ed:tosuperid="210" transform="matrix(1,0,0,1,734.49,1022.67)" ed:parentid="206"/><g ed:topictype="mainidea" ed:layout="rightmap" ed:height="63.33333333333334" id="101" transform="matrix(1,0,0,1,23,504.67)" ed:width="152.36"><path d="M31.7,0L120.7,0C138.2,0,152.4,14.2,152.4,31.7C152.4,49.2,138.2,63.3,120.7,63.3L31.7,63.3C14.2,63.3,0,49.2,0,31.7C0,14.2,14.2,0,31.7,0z" stroke="#00af54" fill="#00af54" stroke-linejoin="round" stroke-width="3"/><text class="st1"><tspan x="26" style="white-space:pre" y="40.1">数据分析</tspan></text></g><g ed:height="41.66666666666667" id="102" transform="matrix(1,0,0,1,238.36,36.67)" ed:parentid="101" ed:width="114.6666666666667"><path d="M4,0L110.7,0C113.4,0,114.7,1.3,114.7,4L114.7,37.7C114.7,40.4,113.4,41.7,110.7,41.7L4,41.7C1.3,41.7,0,40.4,0,37.7L0,4C0,1.3,1.3,0,4,0z" stroke="#454545" fill="#ffffff" stroke-linejoin="round" stroke-width="2"/><text class="st2"><tspan x="18" style="white-space:pre" y="27.3">问题分析</tspan></text></g><g ed:height="41.66666666666667" id="104" transform="matrix(1,0,0,1,238.36,129)" ed:parentid="101" ed:width="114.6666666666667"><path d="M4,0L110.7,0C113.4,0,114.7,1.3,114.7,4L114.7,37.7C114.7,40.4,113.4,41.7,110.7,41.7L4,41.7C1.3,41.7,0,40.4,0,37.7L0,4C0,1.3,1.3,0,4,0z" stroke="#454545" fill="#ffffff" stroke-linejoin="round" stroke-width="2"/><text class="st2"><tspan x="18" style="white-space:pre" y="27.3">认识数据</tspan></text></g><g ed:height="41.66666666666667" id="106" transform="matrix(1,0,0,1,238.36,286.96)" ed:parentid="101" ed:width="114.6666666666667"><path d="M4,0L110.7,0C113.4,0,114.7,1.3,114.7,4L114.7,37.7C114.7,40.4,113.4,41.7,110.7,41.7L4,41.7C1.3,41.7,0,40.4,0,37.7L0,4C0,1.3,1.3,0,4,0z" stroke="#454545" fill="#ffffff" stroke-linejoin="round" stroke-width="2"/><text class="st2"><tspan x="18" style="white-space:pre" y="27.3">数据建模</tspan></text></g><g ed:height="23.5" id="108" transform="matrix(1,0,0,1,396.23,19)" ed:parentid="102" ed:width="98"><path d="M0,0L98,0L98,23.5L0,23.5L0,0z" fill="#ffffff"/><path stroke="#454545" d="M0,23.5L98,23.5" fill="none" stroke-linejoin="round"/><text class="st3"><tspan x="8" style="white-space:pre" y="15.4">问题背景分析</tspan></text></g><g ed:height="23.5" id="110" transform="matrix(1,0,0,1,396.23,49)" ed:parentid="102" ed:width="98"><path d="M0,0L98,0L98,23.5L0,23.5L0,0z" fill="#ffffff"/><path stroke="#454545" d="M0,23.5L98,23.5" fill="none" stroke-linejoin="round"/><text class="st3"><tspan x="8" style="white-space:pre" y="15.4">问题知识梳理</tspan></text></g><g ed:height="23.5" id="112" transform="matrix(1,0,0,1,396.23,111.33)" ed:parentid="104" ed:width="111.3333333333333"><path d="M0,0L111.3,0L111.3,23.5L0,23.5L0,0z" fill="#ffffff"/><path stroke="#454545" d="M0,23.5L111.3,23.5" fill="none" stroke-linejoin="round"/><text class="st3"><tspan x="8" style="white-space:pre" y="15.4">数据可视化分析</tspan></text></g><g ed:height="23.5" id="114" transform="matrix(1,0,0,1,396.23,141.33)" ed:parentid="104" ed:width="84.66666666666667"><path d="M0,0L84.7,0L84.7,23.5L0,23.5L0,0z" fill="#ffffff"/><path stroke="#454545" d="M0,23.5L84.7,23.5" fill="none" stroke-linejoin="round"/><text class="st3"><tspan x="8" style="white-space:pre" y="15.4">数据预处理</tspan></text></g><g ed:height="23.5" id="116" transform="matrix(1,0,0,1,396.23,203.67)" ed:parentid="106" ed:width="71.33333333333334"><path d="M0,0L71.3,0L71.3,23.5L0,23.5L0,0z" fill="#ffffff"/><path stroke="#454545" d="M0,23.5L71.3,23.5" fill="none" stroke-linejoin="round"/><text class="st3"><tspan x="8" style="white-space:pre" y="15.4">特征工程</tspan></text></g><g ed:height="23.5" id="118" transform="matrix(1,0,0,1,396.23,364.92)" ed:parentid="106" ed:width="71.33333333333334"><path d="M0,0L71.3,0L71.3,23.5L0,23.5L0,0z" fill="#ffffff"/><path stroke="#454545" d="M0,23.5L71.3,23.5" fill="none" stroke-linejoin="round"/><text class="st3"><tspan x="8" style="white-space:pre" y="15.4">算法选择</tspan></text></g><g ed:height="23.5" id="122" transform="matrix(1,0,0,1,510.76,233.67)" ed:parentid="118" ed:width="98"><path d="M0,0L98,0L98,23.5L0,23.5L0,0z" fill="#ffffff"/><path stroke="#454545" d="M0,23.5L98,23.5" fill="none" stroke-linejoin="round"/><text class="st3"><tspan x="8" style="white-space:pre" y="15.4">识别问题类型</tspan></text></g><g ed:height="23.5" id="124" transform="matrix(1,0,0,1,510.76,496.17)" ed:parentid="118" ed:width="111.3333333333333"><path d="M0,0L111.3,0L111.3,23.5L0,23.5L0,0z" fill="#ffffff"/><path stroke="#454545" d="M0,23.5L111.3,23.5" fill="none" stroke-linejoin="round"/><text class="st3"><tspan x="8" style="white-space:pre" y="15.4">选取合适的算法</tspan></text></g><g ed:height="23.5" id="128" transform="matrix(1,0,0,1,665.29,368.67)" ed:parentid="124" ed:width="44.66666666666667"><path d="M0,0L44.7,0L44.7,23.5L0,23.5L0,0z" fill="#ffffff"/><path stroke="#454545" d="M0,23.5L44.7,23.5" fill="none" stroke-linejoin="round"/><text class="st3"><tspan x="8" style="white-space:pre" y="15.4">分类</tspan></text></g><g ed:height="23.5" id="130" transform="matrix(1,0,0,1,753.16,293.67)" ed:parentid="128" ed:width="58"><path d="M0,0L58,0L58,23.5L0,23.5L0,0z" fill="#ffffff"/><path stroke="#454545" d="M0,23.5L58,23.5" fill="none" stroke-linejoin="round"/><text class="st3"><tspan x="8" style="white-space:pre" y="15.4">决策树</tspan></text></g><g ed:height="23.5" id="134" transform="matrix(1,0,0,1,753.16,383.67)" ed:parentid="128" ed:width="84.66666666666667"><path d="M0,0L84.7,0L84.7,23.5L0,23.5L0,0z" fill="#ffffff"/><path stroke="#454545" d="M0,23.5L84.7,23.5" fill="none" stroke-linejoin="round"/><text class="st3"><tspan x="8" style="white-space:pre" y="15.4">朴素贝叶斯</tspan></text></g><g ed:height="23.5" id="136" transform="matrix(1,0,0,1,881.03,353.67)" ed:parentid="134" ed:width="44.66666666666667"><path d="M0,0L44.7,0L44.7,23.5L0,23.5L0,0z" fill="#ffffff"/><path stroke="#454545" d="M0,23.5L44.7,23.5" fill="none" stroke-linejoin="round"/><text class="st3"><tspan x="8" style="white-space:pre" y="15.4">原理</tspan></text></g><g ed:height="23.5" id="140" transform="matrix(1,0,0,1,881.03,383.67)" ed:parentid="134" ed:width="58"><path d="M0,0L58,0L58,23.5L0,23.5L0,0z" fill="#ffffff"/><path stroke="#454545" d="M0,23.5L58,23.5" fill="none" stroke-linejoin="round"/><text class="st3"><tspan x="8" style="white-space:pre" y="15.4">优缺点</tspan></text></g><g ed:height="23.5" id="142" transform="matrix(1,0,0,1,881.03,413.67)" ed:parentid="134" ed:width="71.33333333333334"><path d="M0,0L71.3,0L71.3,23.5L0,23.5L0,0z" fill="#ffffff"/><path stroke="#454545" d="M0,23.5L71.3,23.5" fill="none" stroke-linejoin="round"/><text class="st3"><tspan x="8" style="white-space:pre" y="15.4">应用场景</tspan></text></g><g ed:height="23.5" id="144" transform="matrix(1,0,0,1,854.36,263.67)" ed:parentid="130" ed:width="44.66666666666667"><path d="M0,0L44.7,0L44.7,23.5L0,23.5L0,0z" fill="#ffffff"/><path stroke="#454545" d="M0,23.5L44.7,23.5" fill="none" stroke-linejoin="round"/><text class="st3"><tspan x="8" style="white-space:pre" y="15.4">原理</tspan></text></g><g ed:height="23.5" id="145" transform="matrix(1,0,0,1,854.36,293.67)" ed:parentid="130" ed:width="58"><path d="M0,0L58,0L58,23.5L0,23.5L0,0z" fill="#ffffff"/><path stroke="#454545" d="M0,23.5L58,23.5" fill="none" stroke-linejoin="round"/><text class="st3"><tspan x="8" style="white-space:pre" y="15.4">优缺点</tspan></text></g><g ed:height="23.5" id="146" transform="matrix(1,0,0,1,854.36,323.67)" ed:parentid="130" ed:width="71.33333333333334"><path d="M0,0L71.3,0L71.3,23.5L0,23.5L0,0z" fill="#ffffff"/><path stroke="#454545" d="M0,23.5L71.3,23.5" fill="none" stroke-linejoin="round"/><text class="st3"><tspan x="8" style="white-space:pre" y="15.4">应用场景</tspan></text></g><g ed:height="23.5" id="150" transform="matrix(1,0,0,1,753.16,443.67)" ed:parentid="128" ed:width="68"><path d="M0,0L68,0L68,23.5L0,23.5L0,0z" fill="#ffffff"/><path stroke="#454545" d="M0,23.5L68,23.5" fill="none" stroke-linejoin="round"/><text class="st3"><tspan x="8" style="white-space:pre" y="15.4">knn算法</tspan></text></g><g ed:height="23.5" id="156" transform="matrix(1,0,0,1,665.29,503.67)" ed:parentid="124" ed:width="44.66666666666667"><path d="M0,0L44.7,0L44.7,23.5L0,23.5L0,0z" fill="#ffffff"/><path stroke="#454545" d="M0,23.5L44.7,23.5" fill="none" stroke-linejoin="round"/><text class="st3"><tspan x="8" style="white-space:pre" y="15.4">聚类</tspan></text></g><g ed:height="23.5" id="158" transform="matrix(1,0,0,1,753.16,503.67)" ed:parentid="156" ed:width="74"><path d="M0,0L74,0L74,23.5L0,23.5L0,0z" fill="#ffffff"/><path stroke="#454545" d="M0,23.5L74,23.5" fill="none" stroke-linejoin="round"/><text class="st3"><tspan x="8" style="white-space:pre" y="15.4">K-means</tspan></text></g><g ed:height="23.5" id="162" transform="matrix(1,0,0,1,870.36,473.67)" ed:parentid="158" ed:width="44.66666666666667"><path d="M0,0L44.7,0L44.7,23.5L0,23.5L0,0z" fill="#ffffff"/><path stroke="#454545" d="M0,23.5L44.7,23.5" fill="none" stroke-linejoin="round"/><text class="st3"><tspan x="8" style="white-space:pre" y="15.4">原理</tspan></text></g><g ed:height="23.5" id="163" transform="matrix(1,0,0,1,870.36,503.67)" ed:parentid="158" ed:width="58"><path d="M0,0L58,0L58,23.5L0,23.5L0,0z" fill="#ffffff"/><path stroke="#454545" d="M0,23.5L58,23.5" fill="none" stroke-linejoin="round"/><text class="st3"><tspan x="8" style="white-space:pre" y="15.4">优缺点</tspan></text></g><g ed:height="23.5" id="164" transform="matrix(1,0,0,1,870.36,533.67)" ed:parentid="158" ed:width="71.33333333333334"><path d="M0,0L71.3,0L71.3,23.5L0,23.5L0,0z" fill="#ffffff"/><path stroke="#454545" d="M0,23.5L71.3,23.5" fill="none" stroke-linejoin="round"/><text class="st3"><tspan x="8" style="white-space:pre" y="15.4">应用场景</tspan></text></g><g ed:height="23.5" id="168" transform="matrix(1,0,0,1,665.29,623.67)" ed:parentid="124" ed:width="71.33333333333334"><path d="M0,0L71.3,0L71.3,23.5L0,23.5L0,0z" fill="#ffffff"/><path stroke="#454545" d="M0,23.5L71.3,23.5" fill="none" stroke-linejoin="round"/><text class="st3"><tspan x="8" style="white-space:pre" y="15.4">关联分析</tspan></text></g><g ed:height="23.5" id="170" transform="matrix(1,0,0,1,779.83,593.67)" ed:parentid="168" ed:width="62"><path d="M0,0L62,0L62,23.5L0,23.5L0,0z" fill="#ffffff"/><path stroke="#454545" d="M0,23.5L62,23.5" fill="none" stroke-linejoin="round"/><text class="st3"><tspan x="8" style="white-space:pre" y="15.4">Apriori</tspan></text></g><g ed:height="23.5" id="172" transform="matrix(1,0,0,1,779.83,653.67)" ed:parentid="168" ed:width="80.66666666666667"><path d="M0,0L80.7,0L80.7,23.5L0,23.5L0,0z" fill="#ffffff"/><path stroke="#454545" d="M0,23.5L80.7,23.5" fill="none" stroke-linejoin="round"/><text class="st3"><tspan x="8" style="white-space:pre" y="15.4">FPGrowth</tspan></text></g><g ed:height="23.5" id="174" transform="matrix(1,0,0,1,885.03,563.67)" ed:parentid="170" ed:width="44.66666666666667"><path d="M0,0L44.7,0L44.7,23.5L0,23.5L0,0z" fill="#ffffff"/><path stroke="#454545" d="M0,23.5L44.7,23.5" fill="none" stroke-linejoin="round"/><text class="st3"><tspan x="8" style="white-space:pre" y="15.4">原理</tspan></text></g><g ed:height="23.5" id="175" transform="matrix(1,0,0,1,885.03,593.67)" ed:parentid="170" ed:width="58"><path d="M0,0L58,0L58,23.5L0,23.5L0,0z" fill="#ffffff"/><path stroke="#454545" d="M0,23.5L58,23.5" fill="none" stroke-linejoin="round"/><text class="st3"><tspan x="8" style="white-space:pre" y="15.4">优缺点</tspan></text></g><g ed:height="23.5" id="176" transform="matrix(1,0,0,1,885.03,623.67)" ed:parentid="170" ed:width="71.33333333333334"><path d="M0,0L71.3,0L71.3,23.5L0,23.5L0,0z" fill="#ffffff"/><path stroke="#454545" d="M0,23.5L71.3,23.5" fill="none" stroke-linejoin="round"/><text class="st3"><tspan x="8" style="white-space:pre" y="15.4">应用场景</tspan></text></g><g ed:height="41.66666666666667" id="180" transform="matrix(1,0,0,1,238.36,832.83)" ed:parentid="101" ed:width="114.6666666666667"><path d="M4,0L110.7,0C113.4,0,114.7,1.3,114.7,4L114.7,37.7C114.7,40.4,113.4,41.7,110.7,41.7L4,41.7C1.3,41.7,0,40.4,0,37.7L0,4C0,1.3,1.3,0,4,0z" stroke="#454545" fill="#ffffff" stroke-linejoin="round" stroke-width="2"/><text class="st2"><tspan x="18" style="white-space:pre" y="27.3">模型评估</tspan></text></g><g ed:height="23.5" id="184" transform="matrix(1,0,0,1,396.23,770.17)" ed:parentid="180" ed:width="124.6666666666667"><path d="M0,0L124.7,0L124.7,23.5L0,23.5L0,0z" fill="#ffffff"/><path stroke="#454545" d="M0,23.5L124.7,23.5" fill="none" stroke-linejoin="round"/><text class="st3"><tspan x="8" style="white-space:pre" y="15.4">模型评估指标选择</tspan></text></g><g ed:height="23.5" id="186" transform="matrix(1,0,0,1,564.09,710.17)" ed:parentid="184" ed:width="58"><path d="M0,0L58,0L58,23.5L0,23.5L0,0z" fill="#ffffff"/><path stroke="#454545" d="M0,23.5L58,23.5" fill="none" stroke-linejoin="round"/><text class="st3"><tspan x="8" style="white-space:pre" y="15.4">精准度</tspan></text></g><g ed:height="23.5" id="188" transform="matrix(1,0,0,1,564.09,740.17)" ed:parentid="184" ed:width="58"><path d="M0,0L58,0L58,23.5L0,23.5L0,0z" fill="#ffffff"/><path stroke="#454545" d="M0,23.5L58,23.5" fill="none" stroke-linejoin="round"/><text class="st3"><tspan x="8" style="white-space:pre" y="15.4">查重率</tspan></text></g><g ed:height="23.5" id="190" transform="matrix(1,0,0,1,564.09,770.17)" ed:parentid="184" ed:width="58"><path d="M0,0L58,0L58,23.5L0,23.5L0,0z" fill="#ffffff"/><path stroke="#454545" d="M0,23.5L58,23.5" fill="none" stroke-linejoin="round"/><text class="st3"><tspan x="8" style="white-space:pre" y="15.4">灵敏度</tspan></text></g><g ed:height="23.5" id="192" transform="matrix(1,0,0,1,564.09,800.17)" ed:parentid="184" ed:width="58"><path d="M0,0L58,0L58,23.5L0,23.5L0,0z" fill="#ffffff"/><path stroke="#454545" d="M0,23.5L58,23.5" fill="none" stroke-linejoin="round"/><text class="st3"><tspan x="8" style="white-space:pre" y="15.4">特异度</tspan></text></g><g ed:height="23.5" id="194" transform="matrix(1,0,0,1,564.09,830.17)" ed:parentid="184" ed:width="72.66666666666666"><path d="M0,0L72.7,0L72.7,23.5L0,23.5L0,0z" fill="#ffffff"/><path stroke="#454545" d="M0,23.5L72.7,23.5" fill="none" stroke-linejoin="round"/><text class="st3"><tspan x="7" style="white-space:pre" y="15.4">ROC曲线</tspan></text></g><g ed:height="23.5" id="196" transform="matrix(1,0,0,1,396.23,890.17)" ed:parentid="180" ed:width="71.33333333333334"><path d="M0,0L71.3,0L71.3,23.5L0,23.5L0,0z" fill="#ffffff"/><path stroke="#454545" d="M0,23.5L71.3,23.5" fill="none" stroke-linejoin="round"/><text class="st3"><tspan x="8" style="white-space:pre" y="15.4">模型评估</tspan></text></g><g ed:height="23.5" id="198" transform="matrix(1,0,0,1,510.76,860.17)" ed:parentid="196" ed:width="98"><path d="M0,0L98,0L98,23.5L0,23.5L0,0z" fill="#ffffff"/><path stroke="#454545" d="M0,23.5L98,23.5" fill="none" stroke-linejoin="round"/><text class="st3"><tspan x="8" style="white-space:pre" y="15.4">十折交叉验证</tspan></text></g><g ed:height="23.5" id="200" transform="matrix(1,0,0,1,510.76,890.17)" ed:parentid="196" ed:width="58"><path d="M0,0L58,0L58,23.5L0,23.5L0,0z" fill="#ffffff"/><path stroke="#454545" d="M0,23.5L58,23.5" fill="none" stroke-linejoin="round"/><text class="st3"><tspan x="8" style="white-space:pre" y="15.4">留一法</tspan></text></g><g ed:height="23.5" id="202" transform="matrix(1,0,0,1,510.76,920.17)" ed:parentid="196" ed:width="58"><path d="M0,0L58,0L58,23.5L0,23.5L0,0z" fill="#ffffff"/><path stroke="#454545" d="M0,23.5L58,23.5" fill="none" stroke-linejoin="round"/><text class="st3"><tspan x="8" style="white-space:pre" y="15.4">自助法</tspan></text></g><g ed:height="41.66666666666667" id="204" transform="matrix(1,0,0,1,238.36,994.33)" ed:parentid="101" ed:width="226.6666666666667"><path d="M4,0L222.7,0C225.4,0,226.7,1.3,226.7,4L226.7,37.7C226.7,40.4,225.4,41.7,222.7,41.7L4,41.7C1.3,41.7,0,40.4,0,37.7L0,4C0,1.3,1.3,0,4,0z" stroke="#454545" fill="#ffffff" stroke-linejoin="round" stroke-width="2"/><text class="st2"><tspan x="18" style="white-space:pre" y="27.3">数据挖掘结果可视分析</tspan></text></g><g ed:height="23.5" id="206" transform="matrix(1,0,0,1,508.23,991.67)" ed:parentid="204" ed:width="204.6666666666667"><path d="M0,0L204.7,0L204.7,23.5L0,23.5L0,0z" fill="#ffffff"/><path stroke="#454545" d="M0,23.5L204.7,23.5" fill="none" stroke-linejoin="round"/><text class="st3"><tspan x="8" style="white-space:pre" y="15.4">通过可视化呈现数据挖掘的结果</tspan></text></g><g ed:height="23.5" id="208" transform="matrix(1,0,0,1,756.09,976.67)" ed:parentid="206" ed:width="124.6666666666667"><path d="M0,0L124.7,0L124.7,23.5L0,23.5L0,0z" fill="#ffffff"/><path stroke="#454545" d="M0,23.5L124.7,23.5" fill="none" stroke-linejoin="round"/><text class="st3"><tspan x="8" style="white-space:pre" y="15.4">原则：生动、形象</tspan></text></g><g ed:height="23.5" id="210" transform="matrix(1,0,0,1,756.09,1006.67)" ed:parentid="206" ed:width="204.6666666666667"><path d="M0,0L204.7,0L204.7,23.5L0,23.5L0,0z" fill="#ffffff"/><path stroke="#454545" d="M0,23.5L204.7,23.5" fill="none" stroke-linejoin="round"/><text class="st3"><tspan x="8" style="white-space:pre" y="15.4">明确希望通过图表想表达的含义</tspan></text></g></svg>